# xmcd CD database file
# Copyright (C) 1996 Ti Kan
#
# Track frame offsets:
#  150
#  9847
#  31142
#  50290
#  65755
#  85657
#  97685
#  124550
#  145172
#  168792
#  185855
#
# Disc length: 2686 seconds
#
# Revision: 2
# Processed by: cddbd v1.4b41PL1 Copyright (c) Steve Scherf et al.
# Submitted via: CDWizzard Release:4.12
#
DISCID=7e0a7c0b
DTITLE=Larry Johnson (Accompanied by John Hammond) - Midnight Hour Blues
DTITLE=
DYEAR=1900
DGENRE=
TTITLE0=Blood Red River
TTITLE1=One Room Country Shack
TTITLE2=Saturday Evening Blues
TTITLE3=Peace Breakin' People
TTITLE4=Walking Blues
TTITLE5=Mama-Less Rag
TTITLE6=Red River Dam Blues
TTITLE7=Nobody's Biz-ness
TTITLE8=Midnight Hour Blues
TTITLE9=When Things Go Wrong
TTITLE10=Tell Me Mama
EXTD=
EXTT0=
EXTT1=
EXTT2=
EXTT3=
EXTT4=
EXTT5=
EXTT6=
EXTT7=
EXTT8=
EXTT9=
EXTT10=
PLAYORDER=
